# xmcd
#
# Track frame offsets:
#	151
#	12494
#	36092
#	63714
#	89078
#	116923
#	148072
#	177957
#	202734
#	225462
#
# Disc length: 3483 seconds
#
# Revision: 1
# Processed by: cddbd v1.5PL3 Copyright (c) Steve Scherf et al.
# Submitted via: audiograbber 1.81.02
#
DISCID=8d0d990a
DTITLE=Dave Matthews Band - Maximum Dave Matthews
DYEAR=2000
DGENRE=Vocal
TTITLE0=Introduction
TTITLE1=African Childhood
TTITLE2=Seeds of a Tree
TTITLE3=Cool Jazz
TTITLE4=Rising Stars
TTITLE5=Wandering Spirits
TTITLE6=Stepping the World
TTITLE7=Pleasure and Pain
TTITLE8=On The Road
TTITLE9=For the Future
EXTD=
EXTT0=
EXTT1=
EXTT2=
EXTT3=
EXTT4=
EXTT5=
EXTT6=
EXTT7=
EXTT8=
EXTT9=
PLAYORDER=
